/* XPM */
static char *_40a15699b0c4042a4bfd77ccd301a62yvlo0sJH5jij1O5N[] = {
/* columns rows colors chars-per-pixel */
"64 64 256 2 ",
"   c #000000",
".  c #0A0C05",
"X  c #080706",
"o  c #140A08",
"O  c #0C1704",
"+  c #161609",
"@  c #09131C",
"#  c #0E1215",
"$  c #290704",
"%  c #380902",
"&  c #261909",
"*  c #3A1706",
"=  c #251D12",
"-  c #0E2401",
";  c #1A2709",
":  c #1A3D05",
">  c #1A3606",
",  c #1C2615",
"<  c #27270D",
"1  c #3A260A",
"2  c #282812",
"3  c #362916",
"4  c #2A3615",
"5  c #373716",
"6  c #32370B",
"7  c #0B162D",
"8  c #132337",
"9  c #303223",
"0  c #460A01",
"q  c #4F1510",
"w  c #6D1513",
"e  c #492916",
"r  c #463917",
"t  c #522E10",
"y  c #672A17",
"u  c #773718",
"i  c #723016",
"p  c #4A342B",
"a  c #70332B",
"s  c #6C0E27",
"d  c #1D4406",
"f  c #1F4906",
"g  c #1E4608",
"h  c #214C06",
"j  c #224B09",
"k  c #224707",
"l  c #225306",
"z  c #255B05",
"x  c #255308",
"c  c #2C5C09",
"v  c #295809",
"b  c #325E0A",
"n  c #394618",
"m  c #385816",
"M  c #266304",
"N  c #296506",
"B  c #266903",
"V  c #2B6C04",
"C  c #2D630B",
"Z  c #296609",
"A  c #33640A",
"S  c #326A0A",
"D  c #376C09",
"F  c #2D7303",
"G  c #2E7405",
"H  c #327404",
"J  c #347A05",
"K  c #397B06",
"L  c #347209",
"P  c #3C740B",
"I  c #3C7B0A",
"U  c #367809",
"Y  c #3C6812",
"T  c #3A7813",
"R  c #354729",
"E  c #46471A",
"W  c #50511C",
"Q  c #75481A",
"!  c #6D5116",
"~  c #437C0B",
"^  c #44780C",
"/  c #46681C",
"(  c #467717",
")  c #58761B",
"_  c #474723",
"`  c #575925",
"'  c #555934",
"]  c #564C2A",
"[  c #6E4F2F",
"{  c #596825",
"}  c #526F2B",
"|  c #676729",
" . c #67752B",
".. c #787A32",
"X. c #716D2F",
"o. c #60671D",
"O. c #173154",
"+. c #1C396B",
"@. c #1D3C78",
"#. c #232751",
"$. c #5C2D53",
"%. c #294A77",
"&. c #27446C",
"*. c #755947",
"=. c #776844",
"-. c #6F6D4A",
";. c #4D4C70",
":. c #676060",
">. c #951719",
",. c #871516",
"<. c #AE1C19",
"1. c #902A17",
"2. c #AF281A",
"3. c #922B27",
"4. c #AF302C",
"5. c #A70B2E",
"6. c #D33019",
"7. c #D23130",
"8. c #E6362D",
"9. c #E7331B",
"0. c #8C5417",
"q. c #96671A",
"w. c #A66A1C",
"e. c #994829",
"r. c #8A522E",
"t. c #AF532D",
"y. c #8F7033",
"u. c #AF712E",
"i. c #A35815",
"p. c #CE4F32",
"a. c #CB6C34",
"s. c #E9653B",
"d. c #DE1D4F",
"f. c #864F50",
"g. c #97664A",
"h. c #96775C",
"j. c #8D6E4D",
"k. c #A3775B",
"l. c #B2714F",
"z. c #947C61",
"x. c #B76950",
"c. c #CA564A",
"v. c #D07153",
"b. c #F36647",
"n. c #D9675F",
"m. c #A70845",
"M. c #3D8208",
"N. c #3B8110",
"B. c #44830B",
"V. c #4D8B0D",
"C. c #49860B",
"Z. c #518C0E",
"A. c #55940E",
"S. c #498715",
"D. c #558C19",
"F. c #559212",
"G. c #5B9413",
"H. c #5A9519",
"J. c #49940C",
"K. c #649B18",
"L. c #6E8B1C",
"P. c #6CA31A",
"I. c #6AA418",
"U. c #76AB1C",
"Y. c #7CB11D",
"T. c #55922D",
"R. c #688828",
"E. c #649724",
"W. c #758E34",
"Q. c #67A223",
"!. c #76A828",
"~. c #7CB225",
"^. c #76A636",
"/. c #70914D",
"(. c #7AB34C",
"). c #7EB361",
"_. c #83B71E",
"`. c #83AE1D",
"'. c #888B38",
"]. c #91912C",
"[. c #85B925",
"{. c #8AB735",
"}. c #8DAD34",
"|. c #A09632",
" X c #D18833",
".X c #EB8739",
"XX c #CBAB3C",
"oX c #96C638",
"OX c #9FD03A",
"+X c #8FC230",
"@X c #A3D23E",
"#X c #91904B",
"$X c #AE8444",
"%X c #98B746",
"&X c #8BAD4C",
"*X c #ACB351",
"=X c #998669",
"-X c #A98668",
";X c #A99479",
":X c #B99675",
">X c #AC8D6B",
",X c #96B96D",
"<X c #B3A66D",
"1X c #F19350",
"2X c #FFA255",
"3X c #D09370",
"4X c #EA9469",
"5X c #CCA57A",
"6X c #F2AD78",
"7X c #CA9753",
"8X c #99C348",
"9X c #8BC656",
"0X c #88C34D",
"qX c #A5CC4B",
"wX c #91CE68",
"eX c #ADCC6A",
"rX c #D9D577",
"tx c #203D80",
"yX c #254C87",
"uX c #295098",
"iX c #2A55A6",
"pX c #346DB1",
"aX c #295791",
"sx c #5C6794",
"dX c #356DCE",
"fX c #3974EA",
"gX c #2E5CC2",
"hX c #427CF2",
"jX c #6793B5",
"kX c #3F88E6",
"lX c #4792F0",
"zX c #53ACFC",
"xX c #5B93D3",
"cX c #6ED6FF",
"vX c #A89E82",
"bX c #BCB292",
"nX c #CFB08A",
"mX c #F8B487",
"MX c #F2BB90",
"NX c #C49FAA",
"BX c #D2C590",
"VX c #FAC794",
"CX c #FCDBAD",
"ZX c #F5D4AA",
"AX c #FEE8B8",
"sx c #FDE9B2",
"DX c #95C9F6",
"FX c #AAFCFF",
"GX c #B7F0FE",
"HX c #FDF7C6",
"JX c #FFFCD8",
"KX c #FFEFC2",
"LX c #FFFFE7",
"PX c #FFFFF7",
"IX c #C1E5E1",
"UX c #8CBED3",
/* pixels */
"                                                                                                                                ",
"                                                        X X                                                                     ",
"                                                      @ pXX   . @                                                               ",
"                                                    @ xXlX%.8 pXpX                                                              ",
"                                                  @ pXzXlXzXcXcXfX@                                                             ",
"                                                @ yXlXzXzXzXzXhXfX@                                                             ",
"                                              @ O.iXlXzXzXzXlXfXfX7 O.#                                                         ",
"                                              O.O.uXlXlXlXhXgXdXkXkXzX+.                                                        ",
"                                              +.@.txdXkXkXgXgXdXpXdXfXyX                                                        ",
"                                              O.%.@.uXpXpXiXiXtxyXtxiX@.                                                        ",
"                                              O.yX@.@.txiXiXtx7 +.O.7 O.#                                                       ",
"                                              O.@.%.+.txiXtx7 X 7 8   O X                                                       ",
"                                              X 8 @.+.@.iX7 X               o :.vX9                                             ",
"                                                  X 8 O.$.+             X ] 3XmXVX-.                                            ",
"                                + :Xj.p #         X = [ y.#XW.o.4 +   @ j.4Xc.4.4X>X                                            ",
"                                3 3Xv.3X6X=X2 o 5 '.#XqX|.*X*XrXXX7Xy.v.mXn.3.4.c.5X                                            ",
"                                3 f.3.3.c.mXj.[ j.$X|.%X'.#X|.$X3.4.4.b.b.b.c.c.c.nX                                            ",
"                                e [ s i e.e.2.t.3.8.7.r.X.|.| w ,.8.b.f.;.$.<.8.p.l.                                            ",
"                                = r.e 4.2.w q e p.8.8.3.{ '.o.i 5.<.9.NXFXGXUX:.>.p.e                                           ",
"                                o a s 2.p ;.pX;.>.<.7.Q W  .| Q 3.>.6.s.IXFXFXGXjX,.p.$                                         ",
"                                X 3.<.;.xXjXaX[ <.<.4.w.u.XX X Xt.>.<.9.n.DXDXDXDX;.7.1.                                        ",
"                                o 6.f.DXxXaX&.2.2.<.t. X.X.Xa. Xu.w >.2.u p.b.n.n.x.7.3.                                        ",
"                                * 2.sxxXsxa i y <.<.i t Q ! ! t q w ,.>.w 2.6.6.9.9.1.i *                                       ",
"                                0 3.p.4.>.1.,.w ,.<.,.< ; < < < * w ,.q % 0 0 0 w 0 0 i 0.                                      ",
"                              o t 0 ,.w q 0 0 % 0 w w < 1 6 E 6 5 q q * 0 * * 0 * * % 1 t X                                     ",
"                              e y % % % $ $ $ * 1 e r o.| | | ......X...W...W.W.......| <                                       ",
"                              t & $ & < 6 r E W | | |  ...X.|  .X. . . .o.o.| X.| | | ' W 5 .                             o +   ",
"                              + < 5 n E E E W E r E W W r W ] ] Q Q u q q w i e.t.x.e X . X                             +  Xu.  ",
"                            X + < < 3 p r t t q q * * q r.x.v.n.3.w y 1.1.1.i.t.v.v.e X                               o i w. Xr ",
"                          + r ! y.[ a [ a y u u u i t a g.3XmXmXv.i.i.t.a.a.a.p.4X4Xg.X                             + t q.! Q t ",
"                  X       3 =.<X<X[ [ *.[ i y y i.e.r.r.k.VXAXVX4Xu.a..Xi.1.p..X6XMXVX5X3                     @ o s u e e & +   ",
"                  + O   + [ =.=.p [ *.j.r.i y u i a.e.r.>XCXLXHXmXa..Xt.p.a.p..XVXKXCXCXk.X       , #       X q d.7.< X         ",
"                  9 2   , *.[ j.*.j.z.z.y.e.t.v.t.e.t.k.nXAXLXJXAX2Xs.s.2X2X2X6XKXLXHXHX'         9 # X o & s m.d.a <     X     ",
"                  R R O   9 X.X.h.z.z.;X3Xx.u.a.a.v.l.>XBXHXLXLXJXsxmX2X2X2X6XHXPXJXHXsxZXo     + } 3 ! w.a ,.m.m.c.m.q o       ",
"                  R /.;     9 h.h.h.z.z.bXnXnXnX5X3X:XnXMXmXmXZXHXHXAXsxsxHXLXPXPXLXsxk.9 X     E &Xu.w.:.+ X $ q y.4.m.5.s o   ",
"                  4 9X<     X 9 j.h.h.z.vXbXBXBX<X:X>Xh.4.$X7Xb.v.AXsxsxHXPXPXLXbXnX*.      X e ].9X0.&.X         W.+ X X X X   ",
"          X       4 &X>     . + ] <X>X>X;X;XvX<X<X-Xk.g.y ! Q w v.mXVXrXHXJXJXHX' 1 r O . < 0.u.].%X%.# X   .   + {..           ",
"          ;       , {.4   < O o _ j.#X*.;X;X;X;X*X>X-Xk.j.].y.l.5XmXVXrXAXCXZXZXz.+ r X.E q.q.1 R.^.8   . X 2   n oX.           ",
"          2       - [.} X m X o W o.2 3 =.=X;X;X%X=Xk.g.j.%X*Xk.v.nXBXeXZXBXnX;Xp r ].q.i.' } @ ).!.    O X n .  .oX.           ",
"        X 4       4 +X/.n n   . 2 R.` 5 r _ j.>X+X<Xz.g.f.*X%Xl.v.3X*X&Xz.j.[ [ 0.].].Q ! 4 ( R 0XU.. . - O } m }.8X. .         ",
"          m .     / !.,X!.O   o 2 5 !.E r 2 e y.%X%Xh.h.#XeX%X-X-X=XqX%XQ r.0.q.].`.t ! | ! 4 &X9X_., + ; 2 W.`.oX^.. ;         ",
"        .  .+     ) [.9X`.,   + 2 2 L.R.3 < q y.$XqXy.a y.eX%Xy.3.l.eXeXq.0.q.0.K.W E ! ] | ' 9X9X_.n ; : n oX[.OX!.; 4         ",
"        + !.>     E.~.[. .9 n + 3 < 5 `.m = s }.x.*XI.d.].eXqXt.8.*XrXwX].! u L.Q.m E ! _ '.R ).9X_.) x m ) oX[.qXQ.b n         ",
"        ; {.m   n G.~.Y.(., /.E 3 2 &  .V.3 y [.a %XH.8.].eX8X|.c.OX&X#X`.t u Y.&X_ r E  .-._ ).9X_.!.S Y }.+X[.@X~.V.n         ",
"        < +XD.  R.S.E.Y.9X} } %Xr < 4 , S R.y.[.f.'.G.e.U.eXoX].|.[.X.g._.'.}.I.(.m 1 / }.` /.T.9X_.~.J S.@XP.+XqX!.V.6         ",
"        ; +XE.4 {.B.G.P.wX/._ *XW.5 { 1 b Y.Y.{.g.'.A.{.U.qX8X`.oXL.y.6X[.G.U.&X^.( 3 S.W.! ,XT.0X_.U.F K oXH.~.OXQ.C.4         ",
"        < ^.K.H.~.S.S.H.wXT.E ..Y...W.E A !.K.%X:X#XA.!.I.8X+X[.{.Z.t.VX{.Z.}.,XD.D./ C.X.W wXS.(._.I.V B E.K.S.oXD.K ;         ",
"        4 } E.S.H.N.G.Q.wXT.R E I.OX{ / S V.K.*XnX#XA.F.K.[.`.+X!.H.u.nXOXZ.,X,XI S.S.Z.' -.wXT ~.I.C.V H L I.U ~.T G 4 .       ",
"        / 5 E.D ~ K K.Q.wXS.' } I.@XE / Z G Y.[.$XL.Z.~ P.P.U.OXH.D.i.BX~.S./.&XJ U H C.' ).wXG !.~.G F U M G.^ E.Z H m ,       ",
"        E.9 ( V I ~ I.S.wXS.} T.{.OX' / B L Y._.{.E.K ^ U.G.Y.oX~ K.XX^.Y.S.S.E.F U K B.W.wX).G I.~.U F Z M V.~ I Z J ( ;       ",
"      O K.n ( V C.B.F.I (.S.M.S.&X+X/.R.B H K.[.U.A.F B.P.V.~.@XP  .].H.Y.F.V ~ H S M.B.S.(.T.G K.[.I G Z Y C.B.V V I H +       ",
"      O Z. .D.V C.M.C.H T.T M.T.8X+XI.S.B L G.Y.U.C.F Z.G.I U.@X( M I.K.H.F.V H G C B.J T.Q.S.B I.[.I F z ( N.C.V G U S +       ",
"      - C.{.S.H P U M.F T U S.K.!.oXT.L V H C.I.I.B.G J.~ ~ P.oXP Z [.F.C.F.G V Z C N.G T.0XM.B K.[.I F h S U M.F G L c >       ",
"      - P ~.V.V Z M.I V V J N.F.S.oXB.N H H B.K.I.J G C.B B.I.~.x M U.D.I C.N N Z Z J F T.wXH.F K.U.U V f z F G F G S C f X     ",
"      - K K.I V M B.S V L J N.U S.[.S N H H V.G.A.H H J V K G.G.h z G.Z.H V.z M B C I F N.(.I G ^ K.G V f v Z B G H c v z X     ",
"      - S Z.H N M I Z G S J V Z V.A.c c H H C.G.Z.V G G V J G.C.f z ^ I H V.l z Z S P B F U F F z T U Z g A z M V F z v V O     ",
"    X - V C.F z M S z F z G z T A.J.C l G C B.A.~ B F B V M.G.~ f h M C J Z.z Z B S ~ B S J F V z l H M f c l l G M h A C O     ",
"      > c I B f B l z H l B C ~ Z.J.S f z S I C.S M B B V B.Z.P f f f z F G h v B S ~ H M C G V z f N z k l f d Z x k D A .     ",
"      - l G M d M f B F h l I F C.J.A d z U I ~ v M z B B B.C.S g l j f B B j x C c ^ H F l V B z h l z b j k : Z l g D C X     ",
"      O f G z d z : V V f A K F G C.c f B I ^ K h z f M z F.M.M g z x : z l j k S v A L F M l z z z : l m v k k l z g S c       ",
"      - d F l d l : G Z x ^ H F M P v f N K ~ D : f d l z F.M.l k z z : l j k k c P x A F F h k l V : d Y b h h : l k A x       ",
"      O d V l d f d V Z P ^ G B H ^ l k z ~ ~ b : l : f z I.M.l g l Z > h v : j j ~ A : B G z g l V : d Y A v b > f f b 6       ",
"      O d B f : : d Z C ~ H G F K D f k z K ~ x : d : d v U.K f x v B d : k : j k D ^ : l J z f k M d k ^ m b D : g f j -       ",
"      . > l : > > d v P D l F F P A > k l D D : : : : d k D.H d v v Z f > d > d : v ^ f : B k d f d > f m Y b P : : f > X       "
};
