/* XPM */
static char *_7f4c5d9fe8840e6ad89ab283831383c71x6jbIMQXkCVbk3[] = {
/* columns rows colors chars-per-pixel */
"64 64 110 2 ",
"   c #1E3C16",
".  c #1F3E18",
"X  c #25340D",
"o  c #212E10",
"O  c #202E19",
"+  c #263613",
"@  c #293612",
"#  c #253B15",
"$  c #2B3C16",
"%  c #22361A",
"&  c #2A3719",
"*  c #253C1A",
"=  c #2C3D1B",
"-  c #313E17",
";  c #313F1B",
":  c #273D20",
">  c #2A3E21",
",  c #303F20",
"<  c #1E4415",
"1  c #1E431A",
"2  c #1E4918",
"3  c #294A0E",
"4  c #2F510F",
"5  c #234316",
"6  c #2B4216",
"7  c #244B16",
"8  c #2A4B13",
"9  c #25441B",
"0  c #2D431C",
"q  c #254B1B",
"w  c #2B4B1C",
"e  c #324216",
"r  c #314917",
"t  c #32441D",
"y  c #39461E",
"u  c #35481C",
"i  c #34491D",
"p  c #364C1C",
"a  c #38491E",
"s  c #394A1E",
"d  c #275317",
"f  c #2C5315",
"g  c #26511B",
"h  c #27511C",
"j  c #2C531B",
"k  c #2F5519",
"l  c #2E5A1C",
"z  c #315111",
"x  c #325416",
"c  c #3F5017",
"v  c #31501C",
"b  c #32541C",
"n  c #395518",
"m  c #32591E",
"M  c #3C6315",
"N  c #3C651C",
"B  c #1F4926",
"V  c #254320",
"C  c #2D4321",
"Z  c #2B4520",
"A  c #2E4420",
"S  c #254A22",
"D  c #2B4820",
"F  c #2C4B21",
"G  c #314123",
"H  c #334222",
"J  c #324623",
"K  c #344521",
"L  c #324424",
"P  c #324525",
"I  c #374625",
"U  c #354526",
"Y  c #364727",
"T  c #394622",
"R  c #334821",
"E  c #354A22",
"W  c #304924",
"Q  c #374B25",
"!  c #374927",
"~  c #354B27",
"^  c #344D26",
"/  c #3A4823",
"(  c #3C4A23",
")  c #3B4D23",
"_  c #384A24",
"`  c #384A27",
"'  c #344629",
"]  c #364728",
"[  c #374728",
"{  c #364828",
"}  c #354C28",
"|  c #374C28",
" . c #364B2C",
".. c #3A4C29",
"X. c #394D2C",
"o. c #2C5123",
"O. c #2F5B22",
"+. c #2D532A",
"@. c #345223",
"#. c #3E5124",
"$. c #305826",
"%. c #385D23",
"&. c #36552B",
"*. c #3C512D",
"=. c #315C2A",
"-. c #385C2C",
";. c #356122",
":. c #396535",
">. c #425226",
",. c #42532D",
/* pixels */
"H [ K Y [ [ [ ! = t t = ; & u u 0 R t e e 0 0 t 0 0 6 u @ H $ u J t L J L t t = 9 * 0 : = > w t 0 0 i i 0 0 Z t [ ! H t @ = t Y ",
"= $ @ @ t ; = H { H $ = 0 ; p u R R t 6 X 6 0 $ $ } 0 0 0 t 0 t ( & 0 t Y K = = 0 = : 5 = : / ' 0 0 F 9 $ Z 9 u t t $ = 0 0 Y Y ",
"[ H ! Y 0 K t ! J ..$ X 6 $ u t u u t $ t 6 u 0 K u H t J w R t X t ! t = t K u [ C w j M q 5 J 0 * 0 % 0 q * = @ ; T t 0 @ @ 0 ",
"[ 0 L 0 { ! H Y 0 t & J - J t i p t t / u t ! R = * W { E 0 # * 0 ..! ! K J K & t J [ 9 b k i = q w J J 9 { 0 t C t t e @ t $ ! ",
"Y Y = = ! ! Y 0 ..{ = a t u ( E u t t u t ! t t I u H u w = 0 & 0 ! ! ^ ! = $ J = } K 0 9 9 I w v u K 0 0 * + H J @ t - 0 X.= H ",
"Y + ! ! = = t ; ; ; t @ t u u K y 0 u e = t E - Y 0 0 J q 9 q 9 0 [ ! _ 0 t u } J = [ 0 5 9 9 u L 0 0 0 = @ 0 t , { H = J X.I = ",
"J 0 H H t ....Y = t @ @ t u t K 0 0 t u _ t = $ = F j q b 9 g q 9 w E > t 0 t = L 0 @ 0 = 9 9 w 0 0 H 0 t t H t t Y [ = Y t t C ",
"! Y & H Z ..! u & ; ( $ = u ..! { { t t ^ J t u 0 0 9 9 w 9 < 1 9 g Z H t t ; ..) { _ 0 H I E Z ^ Z L L K * 0 t Y Y J = t 0 0 ! ",
"[ J = ..Y , y t @ t t $ u t ( E Y Y ^ ; _ ..J $ 0 0 Z 0 9 * 9 1 g 1 V F e t = H T ^ K u 0 H * t ! J ..0 $ = H { 0 [ [ Z 0 $ { ..",
"! = t H [ = y t t $ 0 p t ; u y u u u > t t / K T H K 0 Z 9 F Z 2 q H Z ^ Y 0 0 t u u K t 0 t 0 @ H [ [ Z K ! $ X.Y Y [ = t t Y ",
"C H H J Y t = 0 t @ t 0 = t t t t t t = t ; t u H H 0 p Z H w F 9 < 9 J } F J ..K @ K y = u * ! J = t t _ [ K ! H 0 J H H t L 0 ",
"! J H > * : u t & $ 0 E = ) = t t t $ t / t t y t a 0 0 9 b h q q q q 9 0 9 0 C Y e 0 C 0 = J t L + ; * E [ K ..@ J C t J [ t Y ",
"^ Y H 0 E t ..>.@ 0 o.D o.D * 0 q t / t u t ; - $ t w 0 q 0 q 9 9 . q 9 q 7 < 9 ; * t a e t E { W $ u @ E ! t @ t _ = H 0 ! ! R ",
"^ ..= L 0 H = * E r 9 V +.F w o.* 0 i j t t t @ ; * 0 0 u t u u = 9 9 0 . 1 0 ; @ u = u C #.^ ! *.* ..= t ; 0 ; t t K = H _ t } ",
"} 0 C = 0 = * Z 0 D 0 j b z o.w w 6 w w 0 6 ; = = 0 0 = = = = , = q = u 0 0 p ; - t ; t t Y ! ! W 0 ! = ..0 u u $ t = u u _ R } ",
"Z H D * * L u * j w q S f 8 6 9 J J $ y t y u = Z * @ = & = T u t = F q C t t u * - y u = u ! ^ J # E = t & t @ ; ; C 0 t t t F ",
"0 0 0 Z Z & 0 9 l q 9 0 # 7 # h 0 J t $ t u ; @ ; * ..b $ @ t _ t 0 0 0 $ @ # t t t J Z T t ! W 0 0 0 0 = t = e ; t w 0 0 8 # w ",
"w 0 * 0 0 9 Z w 5 q = t ! 5 2 d l w i 6 e $ y T w x b t = * $ Y L & 6 ; t u t ( J [ I K E * 0 t ! J 0 t t t 0 u $ - 0 t 6 r t 0 ",
"; t 0 0 * % R D q w u t ^ D d 5 w 5 7 0 T ; ( ,.E 6 w 6 $ t t Y t t & E t t ; { Y Y { t $ t ; ! R 0 0 - t $ t t - y ; u K u 6 t ",
"I Z * * 9 9 w w j j q * = 0 < 7 # 8 t t @ & ; >.u x w @ t K E $ u u t ( t ; = ! Y { t 0 t } ! ; C t t 0 = u = = $ J ; = t , >.t ",
"t 0 t 0 L Z 0 0 t * 9 = ^ t # + u I y H @ @ _ T $ @ ; t u t $ @ K [ t K t H ^ , Z t t = t 0 = * = 0 ! $ 0 t @ #.t T T ( ( T ) y ",
"= * 0 6 J t 0 0 0 & ^ Z 0 # 0 0 = _ H t @ @ $ Y - - u t t t - t t @ & t $ H 0 *...J t t = y } J Z = J E w 0 t a t u Y y _ $ = 0 ",
"u * 0 0 J 0 w 0 * X...E 0 @ = $ @ 0 a t t u @ a ; u t t H & @ $ = @ ) { { ! J [ _ H t = ; u ..^ _ 0 $ L 0 t & E t t t ( = t ; K ",
"J = = 0 * * a 0 = &.{ E = * * t = @ & u t ( t ; T ; & K Y = ,.( K E i b C 0 0 0 u ; t t $ w t t * E t * t $ t / @ $ 0 & t e t K ",
"} 0 t 0 u t > & } ^ L 0 > = 0 u t = J t y t & u & H K t = a T Y i W 0 9 9 0 * t = E { _ @ R > @ u J { C 9 t T u H ; H t u H ,._ ",
"#.0 % 0 * Z t 0 + 0 & u ; K $ t H 9 C t t a = & K $ & t 0 _ ( 8 6 b l k j 0 0 t = 0 H > { } W = ! { ! 0 u $ H ; = u = u * ,.^ _ ",
"> * ! ^ 0 > L C J { Z #.= X.0 0 t q R 0 u & u @ $ ..; t ; _ .._ x w w 9 0 w = & J Z t H Z 9 9 9 w 0 = = = H K y T p ; ; Y H } ..",
"t E _ t F = 0 i 0 9 * 0 t * H H 0 w % i 0 6 _ = & u & ; ; ..t w 3 $ w 0 i 0 t H ' [ J Y Z 9 w 9 9 = & H ( a t u t t 0 T H H > = ",
"H E t 0 w p * w 9 Z J t L 0 0 ; j w * D 0 C = ; u ; + H e Y i ;.8 6 0 t = t t Y J [ C Z w * * 9 = * = / t t - u = u t S u   & t ",
"u p ) 0 i Z * > 0 t t w L ; J Z q w q = % R t t u 0 t u ! 0 w k 7 w t 0 L H [ H t Y L 9 * 9 0 $.6 * 0 J u t $ t = 0 0 = B t ( u ",
"t t 0 w C * i i t 0 K ^ q w w 0 m q q q w w j v w 0 t t W w w q 9 t Y = 0 F H H Y t J 9 9 9 j % 9 p t t ; t / u u t Y t * E T E ",
"-.W 0 0 0 % = w J J K ! q j 8 w f q q w q q q ^ ..- ; 0 5 q w w q 9 [ } H t L 0 J y 0 0 9 q 0 0 & = t & ( 0 K J y T 0 t 8 u 9 * ",
":.9 . .   0 0 t 0 t t 0 9 9 q < 1 < b 2 q q * W t u t $ = ; = j 9 5 @ = t @ 0 = H = 0 9 9 * L { C %.> + u K t K _ u = w q d f q ",
"S j 9 q 9 w 0 0 w Y a 0 = D h g N q 5 . q 6 9 ; u e 0 t t t 6 % w 9 Y = = K @ @ t L ! 0 ; 0 0 Z F =.o & 0 w 9 v t K ; w 8 d d o.",
"q 7 g 5 w $ = = Y = t @ t q 5 # q k V 7 q q 0 T t u $ u t t t K @ 0 Z H u $ t u 9 0 * i ,.H Z @.! C L : w l j w t t 0 0 6 j q Z ",
"0 C 0 5 * [ 0 K Y t ..; w ^ ! J 9 q Z 9 w w t t t H p = ! = J p 0 0 = , $ / a u @.0 t t Y J O o.* 9 * 9 q q w _ u = ..; t * 9 0 ",
"u u t = J Y 0 J = K K l j w ) J 9 9 5 9 0 q q t t K ; ; t $ ! t T ..t = ) u y t w w 0 0 & * * w g 2 q w 9 Y W 9 0 t t u t L = J ",
"t ; ..t = t Y t E H ^ w d 9 0 q q 9 F R t = K $ ; @ J K t & 0 t L H H e a u y * 5 w w u ! t w g < d 5   9 J W 9 Z u K t u u a u ",
"t = K Y ! u K K E = u w j 5 q 9 9 9 6 0 = $ = @ t u H T 0 t E t t 0 K Y e y t 0 # w D S 9 h q 5 7 < d 2 9 0 0 9 w w R t K ( K ! ",
"E t Y ( t t K = H t ^ R w 9 9 0 9 t 0 0 H L ..= u T t u 0 / i t u & E / $ w t 6 w q 9 h O.q 7 r # 7 7 < 9 9 * 9 0 > J u T a K ! ",
"Y Y a ! { K * >.L E w 0 j * t t / u @ 0 K I _ t * t t t ; _ J t { = 0 9 8 9 q g j q w q d 5 q 1 3 7 5 9 * 0 9 = R K L @ ! t t Y ",
"y t Y W t $ e & K 0 w * # 0 - t - t 0 = Y & = = t 0 $ t t t t ; ; Z = ..5 * w * < q j q 0 / Z 9 1 q q l q 9 0 0 0 t 0 t ! u t H ",
"J $ t H ! t t t { ..0 J  .[ = t H & 0 t = t K [ ..0 u K ..H $ t H t = 0 J 0 6 0 q 5 7 1 9 J _ < 1 9 q   1 q w w E E u t H H K Y ",
"H H _ E ! J t ! } 0 ! ; 0 J = ! = K t = & K 0 K Z D R Y [ ^ _ 6 0 E Y y e 6 0 0 9 < q l 9 J = % 9 q w q o.l q 0 E ! ! K J t t Y ",
"C H t 0 t t $ R ! H ^ H 0 H { = t = = = @ I 0 0 q w 9 E R H t E ! J K K T K 0 6 9 q 9 9 0 0 0 9 l w 9 j q 9 q q { K K } Y Y t H ",
"u [ H = L E 6 ! ! @ = $ ; 0 t = H J @ = t _ v 8 q w 9 ( / t ^ T K u t Y [ & 0 w 0 w 0 = = + w 0 9 w 9 9 w t Z Y u t { { Y K Y u ",
"u t R t 0 @ = = @ E t & Y J H ! _ $ } t @.u 0 2 9 9 = T H t p u t y t [ 0 t = u 5 0 * u Z Z t p i 9 9 q 0 u t # 0 { K K ! H J K ",
"Y L L = H Y 0 t & Y t $ X.0 Y Y Y [ &.u F * 9 5 q 9 Z a K * Y u u Y = t J t = E w w p = 0 0 C w w 0 ! 0 p p 0 0 _ { W _ Z { { u ",
"J [ [ = t ; * = @ t L w = Y t [ ^ D o.O.F o.j j q 0 u 0 t t u @ t u t t = = 0 0 * F w u * 0 % w 0 J t i i i 0 t H t Y Y ..H R ! ",
"J t t H $ 0 $ K @ ; 8 9 ..[ L [ ^ D o.w 9 j q 9 0 = = w 6 t u t ; t K K t @ 0 t t $ 0 = = & u * * p e 0 t t + * Y > = 0 H t L ! ",
"{ = & H L @ ..} W = ( = } H W [ { 0 q h q q @.u @ = t @ t e e u 0 ; 0 & + C 0 0 0 t t = L % p w 6 $ J @.0 # 0 C $ t t ! J = 0 H ",
"J ! t = 0 [ _ ! { H _ $ H t ! J [ 5 q Z q { t 0 u e t t @ 0 = @ + # # K a = t 0 t R t t E 0 0 t 0 0 0 $ % * 0 0 0 : t i T H J J ",
"R J 0 X E [ ! ! ..$ @ ! = ! K J 0 0 9 * C H 0 t u u w u 6 J 0 * i J 0 t t p t $ H t E J L t = 0 j 0 t 9 0 q 9 0 9 9 9 0 t H t t ",
"C t 0 ! H ! ! ! $ $ u { ! $ _ Z 5 = 9 = T p 0 _ e 0 t H 0 = + E w t H p T u t & J @ 0 _ u K t Z 0 q q q 9 j = 9 j 9 9 t p u t W ",
"! ^ t ^ } C ; 0 H t ; K = = = 0 = * * 0 0 J $ * $ 6 0 6 0 0 @ 0 t t H u u K ; K ..; K t u @ u & 0 = 9 q f q % 9 q 9 6 * u y ; I ",
"J Y t ! J X.} H t t t ( .., ..t = *.C T 6 w 9 0 t C @ 9 w i 0 i J = 0 0 * ..{ t { @ ( ( ; _ H J w q 9 q 8 9 9 9 > 0 0 t t t t y ",
"H Y Y [ t K _ E t - e t ! ( ( a = H * 0 + 0 0 0 0 # 0 t t J t w = u > t = t ( t @ ! ..( t t H u Z J R q 9 n c t 0 q 0 6 t u u I ",
"J $ [ 0 { ..t $ / J 0 0 e t u t 0 = 0 t = w 0 0 6 $ @ 9 * = @ 0 0 Y t [ = = H @ ; J ! K @ - 0 Z J , K 0 j 8 w J Y 0 * J H T y { ",
"; J ....L { = L ..! 0 { L X 0 ..^ J u t 0 0 w t 6 6 0 @ @ + @ $ $ t 0 C E t @ @ ; t t a @ y = Z F 0 w 9 9 W ! J E * 0 J t - t H ",
"H H L L = C Y R t H ) [ { t ! { ! t 0 u 0 t w t 0 i F t 0 t 0 J 0 0 [ 0 = @ @ y t t H * _ ) 6 C = w w w J w J L ( 0 * 0 t / ..[ ",
"Y t = [ Z L t ! t = K Y Y t H E t p * 0 * 6 0 + 0 t 0 E J 0 J = * 9 6 * = & * $ $ @ # K t Y [ 0 0 0 w @.@.Y K { Y Z 9 * C Y { { ",
"! J ! J 0 ! H ! = t ! K [ Y @ $ $ 6 @ $ 0 0 w t + 6 $ J t t 0 J t R < V 0 0 t 0 $ = X / = t J w t 6 t w o.0 E t J 9 q 9 = L Y ..",
"Y Y = H } { [ ! ; L t J t Y * w 0 t t p R 0 t 6 i E $ + * = - ..H i 5 9 0 0 * = ! K ! & t T R 0 t t t w L t 0 w 9 < 9 9 & = H ! ",
"H J @ J t 0 t u H E t H J & t t 0 p t E E t 0 9 0 0 R J H = u t E * 5 0 * & * t * 0 u & t u t 0 0 = 6 0 L J 0 0 C J Z 0 = t W J "
};
