/* XPM */
static char *_a089dd7387040e8f654b2e915cfa223MHG3xOsyRymA16Gv[] = {
/* columns rows colors chars-per-pixel */
"64 64 126 2 ",
"   c #1D1D0D",
".  c #1E1D10",
"X  c #1F2607",
"o  c #1E230C",
"O  c #1E280C",
"+  c #1F2811",
"@  c #232607",
"#  c #2A2707",
"$  c #252B07",
"%  c #2A2D07",
"&  c #22250C",
"*  c #28270C",
"=  c #252B0B",
"-  c #2A2D0C",
";  c #312E0C",
":  c #263007",
">  c #2C3207",
",  c #2F3807",
"<  c #27310B",
"1  c #2C320C",
"2  c #2F380B",
"3  c #313607",
"4  c #343B07",
"5  c #31340D",
"6  c #38330F",
"7  c #333A0D",
"8  c #383C0E",
"9  c #242513",
"0  c #292615",
"q  c #252A12",
"w  c #2B2D13",
"e  c #242B1B",
"r  c #2C2C1A",
"t  c #322E13",
"y  c #312F1B",
"u  c #273113",
"i  c #2D3212",
"p  c #2E311A",
"a  c #323414",
"s  c #393515",
"d  c #343913",
"f  c #3A3B14",
"g  c #33341B",
"h  c #3A361C",
"j  c #36391B",
"k  c #393A18",
"l  c #393D18",
"z  c #3D3C19",
"x  c #38391E",
"c  c #3B3A1E",
"v  c #3F3B1E",
"b  c #383C1F",
"n  c #3B3D1F",
"m  c #3C3F1C",
"M  c #2D2E20",
"N  c #2C2C22",
"B  c #2C2D24",
"V  c #312F23",
"C  c #2F3121",
"Z  c #2E3425",
"A  c #303020",
"S  c #343223",
"D  c #323520",
"F  c #343522",
"G  c #363423",
"H  c #323225",
"J  c #393724",
"K  c #3A3727",
"L  c #363922",
"P  c #393920",
"I  c #383823",
"U  c #3A3823",
"Y  c #3F3C23",
"T  c #3C3A25",
"R  c #3E3E26",
"E  c #313228",
"W  c #343528",
"Q  c #35352A",
"!  c #383628",
"~  c #38362B",
"^  c #373828",
"/  c #383928",
"(  c #39392B",
")  c #3C3B2B",
"_  c #3F3C2B",
"`  c #393731",
"'  c #3C3A31",
"]  c #403B16",
"[  c #413C1D",
"{  c #433E23",
"}  c #403D24",
"|  c #423D24",
" . c #483F24",
".. c #423E2A",
"X. c #403B32",
"o. c #413D39",
"O. c #3D4214",
"+. c #3F421F",
"@. c #3F4124",
"#. c #3E402F",
"$. c #404617",
"%. c #40401A",
"&. c #42421E",
"*. c #45411E",
"=. c #414121",
"-. c #454520",
";. c #434224",
":. c #434325",
">. c #4A4325",
",. c #444822",
"<. c #44422B",
"1. c #444529",
"2. c #474429",
"3. c #47432C",
"4. c #49432A",
"5. c #4A452B",
"6. c #4A492B",
"7. c #52492C",
"8. c #444333",
"9. c #474434",
"0. c #4A4633",
"q. c #4A4832",
"w. c #4C4A32",
"e. c #4C4A35",
"r. c #46443B",
"t. c #514C31",
/* pixels */
"p i d 7 1 - | S g P i < d = < < < a 5 w = = = % $ - - w i $ w Y g 9 9 p = i i q q 1 % > i w i E e z &.f q J W w & w I W A r i p ",
"i 7 d 2 z 1 h J F I a Y 6.f i i < 1 g f = 1 1 h 5.g w +.=.w g <.5.w k a #.L = g 2 1 % % r r r Z u x s g < 0 9 - - a J J A / / r ",
"= i = k w.| w r h g 5 q w w i - i - s - a - g T g x a f x s q g w w @ g W F g = a $ % q M B B M = = * o i a 2.g 7 i w w w A G W ",
"i = P 1 -.P i w q 9 = p -.- - 5.2.j i 5 < i 5 f i 1 - w a q =   w w - s g g w m L f = r B M p e d w < < i ..S 8.l i i g k p p i ",
"1 < i j - i 1 2 < i i :.g 2 w J g I w w 2 = d a i = : - & = +.R e.+.5 i w i a r w i = e e O i C q = 1 1 i / J H a 1 - g w p g p ",
"5 1 i g 1 2 $ : $ d < w a a < s J r w m L d 5 a $ 2 = < < 1 P F F / 7 1 w g w g g - q r D g i M r i = g u e _ S 1 = @ q w y r r ",
"i a i i = : $ : @.b a 9.e.d a < w - a r w i : 1 1 1 2 $ 1 < p W J V $ $ w y r w g w = r p i < r p r j ' 5.i 9 = 1 1 @ i g w O.g ",
"2.i i = : , $ $ = = _ H ^ J 2 1 y g p g i = 1 a 2 % @ % g P p r J w 1 $ @ w w S g g i - a 2.2.g w g q _ p = m w 2 = w i R g a g ",
"h _ g = > < $ $ < u D S F S > = w r r w g w < i d i = = P X.R $ = - 5 w 1 L g i f j d i a F g h = i a i i -...i w = x j u g w g ",
"w 9 o i : $ $ < b j w B S 1 1 @ @ w y y h w i < a a u u 1 x q b } - < @ w = P R = a d i a g G r a P l i a P y i r.W P :.x % ; 1 ",
"i i l i 1 $ 2 O 8._ x & - < 7 = < Y g d a i i z =.:.j d s = z | F i D i :.l w i a 8.8.d d i w i p w i r w = - r W 0 b P w 5 - i ",
"w = w g % $ 1 q j a q -.x w = = w w R s i @.s b g r < 7 u d a g w / r.g L 2.a - T G I b 5 1 g g g p i q g w - w i - < i s a w < ",
"= a = a % > i z i - -.Y g g w p 2.a i - a p w s O.g 7 < < u < % * w 0 < b w = i C I G g 1 = g 0 r w g = w =.a 2 g k - a m s = i ",
"i u 1 % % > 2 d i 1 j r * 8.o.d P 2.w - 5 a P i - a > $ : < z g i i g i i a } g w S S < < X = w g g F q < 1 5 w w w i - % 5 i = ",
"w % % $ 1 : 2 7 i w - % w w q i g w 1 - - 1 < i i l 1 , 1 $ $ x < i g i i w / ..g = = 5 d $ i J i 7 a a a =.:.2.P w I 1 > 1 i = ",
"= 2.; % % > 7 d i a g i i i g i < } s i - 1 $ @ = i < > % 2 : = b j * a a = z p q >.p i = w = g I k i :.a F g g g } g 5 5 $ $ = ",
"% p % % # % d 5 &.1 a l < g g w a a a 1 1 1 g $ = @ 2 > > > 1 } T P h j d f w i :.R i a q P -.i i - a 0 w d k k a g i s % % % % ",
"% % = # @ 1 < i [ &.- - [ w = s i = 1 1 - = % > : > % % 5 > - P g g g a i i 7 i g w w r.' f J ..- 5 5 h +.i < i w w 1 % % - % % ",
"5 % 2 2 7 < a 2 s a w 4./ 2.g D a 1 1 1 % 1 % > > : 7 4 7 k = % i i w 6 2 d w w $ % w r q a g w 5 - 1 - < i d j 1 l > 7 $ f % 7 ",
"% 1 1 i u d 7 f 1 1 -  .F g R h i s 1 $ $ % > % > : $ 1 6.5.% 6.% - % 4 d 2 2 j h w i i g < 1 } s < i # $ @ g g _ _ g 1 # % > 5 ",
"1 > @ a w < i i -.w.t r S J J a ; - $ > % > % > 5 % < $ g ; ; r % % @ 5 d 2 :.- g s < g g i i a g - i a a = # h h g P = 1 $ = i ",
"5 7 7 - 1 - i a f 5.v w 0 0 0 > > 5 % 5 = $ % > < % 1 % - % % % % # # 5 1 d l &.- < &.w = s i % 1 1 % % % > g g I g 0 1 1 = = r ",
"a 7 i 2 7 - i P i w 0 t 5 r ..g 8 % % 5 , > = $ $ > % > 3 % : , > 2 < i i i f a s <.P ..y J 1 > % - > : a 1 w y w q 1 - i = C C ",
"5 > a 1 i 1 < w d a :.s g 0.T Y t % @ % 2 $ 5 $ > % [ % % % 1 1 < 1 1 d 7 f = 1 w ;.g F R s j a 1 = = : > g i = = 1 &.g # g p i ",
"5 ..[ 1 7 5 - g g * } - } J J J = 5 > $ = 8 a < = a a w 5 1 1 % % i $ a i i :.q.w y J J S - t * $ > % % a j = - - -.J P J g a s ",
"J ..} x w ;.Y y w g - s S g r 9 % % # % 5 6 5 - - q 0 = w - 7 7 2 - < - i i z 5.s w 9 0 0 a > 3 ; 5 : > % % 7 5 w h g a a d i 7 ",
"V T T r * I _ S & 2.a * w 0 q > : % % % 1 a = g Y s $ w s f a 5 i > 1 - i k a w w a ; y 2.a 5 $ 5 % , $ 5 > l z = - w - = 1 2 d ",
"y y . w w w r   a - R P o = 1 $ > $ 6 >.g < % x s s w a a w 5 % a 1 a > w i a a 5.; J 0.J ^ % % % % > : : d 6.} a 2.# % < i 7 7 ",
"t.[ 9 ;.5.J q a p p L q r 1 1 % % > 5 s = = 5 s } [ k i w a ; ..k a 2 1 2 g g r Y a } S F s $ % % 2 > % $ $ w 5 * w % - 1 - 2 s ",
"=.[ q g } w = k + = q p -.1 % % $ % 4 1 s x 5 i * 0 i d < q ....R a @ a p a w s - k g y g = > % % > < % 5 > % % % 3 % = - i u l ",
"s [ = 0 9 * g o P s i & = 1 X $ > 1 6 % >.} } ..8.} R a g t S T g = ;.} P g & } t * r 0 * < 2 2 $ @ % 5 % 5 > % 5 5 5 i < < 2 i ",
"*   i i a j o = g t a ; % s @ $ = 2 O.5 t Y g S s G _ k - t y r 9 a w r 9 9 w a I g = = % % > % a % > - } % > > $ 1 < a < a 2 2 ",
"< < i 1 @ O + & t s y - $ = % $ 7 6 6 7 %.1 F I ' ' F } % w.7.y w  .5.g * i L :.g 9 w 2 % $ $ ] 6 1 = i 5 w 5 < d % % i $ i < i ",
"1 2 1 1 7 = $ $ # * X % $ $ @ @ z f 5 8 8 8 j G ~ ` P x i O.=.z q F T w w k G g g w i 1 $ = s a - = - q 9 = s w O.d 5 1 1 * 1 i ",
"% @ 2 > $ @ % > $ 1 1 = $ % % @ % ; 8 -.5 a 1 f k x k 5 1 j s x = w . w q a F I g i R i % % 1 1 = h 2.g $ y s a d a i 2 1 - a j ",
"% a 1 7 f s > = a w w & * % % % % # 7 :.} a w 7 s l i < $ $ & o i i ;.p 7 1 t r - g - a 6 >.j - 1 [ a a ; a w a 1 % i 5 2 1 w i ",
"j ] s 4 7 f 5 a A Z a s ; ; @ 5 - = a 6.R 5.a f s g 1 > > 2 - 1 i ..T r.s 2 w a g r 0 < - w * > 7 s } [ s i r w g 4.f a < 1 i g ",
"$ - ; -.6 a i a f i - g h a - 1 i s 2 s Y g > d i p < 2 = % 1 1 i J I S j : - g w g g a < - R v a i & = i a 1 w <.T | < = d g r ",
"% w 2 j } -.< d 7 d 1 @ g * = d 2 l s f 7 1 f > % w $ % 2 > 2 i i r _ A 2 = @ 0 w y r g - - }  .h <.8.#.:.d i t J T a = 2._ I w ",
"$ % - a F } @.s s i % $ @ < 2 5 1 s ..o.a 1 - w i * j < % 7 = 1 R x 9 = % 1 O i a w z g = a h g J D J J _ k - r y 0 w g w 0 9 V ",
"= w i i i p w i d i = m 1 = d 5 t a g w i i i a 1 % - % 8 < - : w = x - 2 q i a J g a i -.x l d F / ' ~ g P 1 q.5.y g g >.a w p ",
"w i 7 r w = - i u = 1 i = a - w ; } m s < - a w $ 5 1 $ 1 % > 5 1 m 2.i q @ i i g x i g p a z a x S ~ ( _ k i z [ x - R T g w e ",
"g a 7 2 a x g w i 2 > , % 5.s - d u k < < z * = % 3 % % @ % > > d b g w 8.F P 2.g $ 5 - a g 5 a 5 d f h g d s i a i i b g q 8...",
"i 2 d :.- a a < i 1 , 3 > - b % w s a d s > = $ $ 1 5 8 $ > t x - * * p ` q @.R y ; ; 5 i k i i i 5 5 j i w 5 5 7 i i $ % w E 0 ",
"a < d l [ > j } i O 4 f z % % 1 a a x 7 7 m s = @ 5 l - < = a a a - * w w - 1 w j 5 i i % $ $ m =.% =.% % - 6 7 7 i s a w i w i ",
"< d 5 a - h 2.F j < 2 1 1 < 1 1 - -.1 s i x 1 % % ] a % = w q * - ;.j 2 j k - a [ a < 1 1 1 @ g w 5 F % % @ 3 7 5 l - z z - p j ",
"d d d i a - } F u < $ = $ a 1 5 1 a s = 1 = - % - - < - }  .j f a 1 1 w w i w i * 5 i < i % % $ % ; % - $ @ 1 1 i -.s - - 1 w i ",
"i < 1 5.w.a 0 p u 2 = : i P a % % - @ $ $ $ $ a >.i % 1 [ y a z s a } 5.g i I 1 2 % i $ > % 5 5 ; 3 ; 5 2 1 i i i z j a } w.} w ",
"- a i k >.g w = < f $ = $ 1 8 > k i = a 1 @ : 1 = = 2 7 t k d - w s T r } } g 5 a % = % > 6 > 5 % 5 5 2 a 1 < a 7 < - i <.p C <.",
"- i g a w w a = 1 < % $ > < [ > s a i f - 1 $ 1 w k b i d i a &.Y - T J g J w s % % > % 5 5 - 5 3 > < # j = > < i [ 5.- h J J J ",
"1 i i a s 5.< i < $ 2 5 > f f ; = = r t - $ 1 5 7 5 g - i i 2 5.5.a 9 y S r 1 % % - % < = y w - = 2 5 2 - - = i 2 &.5.s w 9 y r ",
"a < g g w a a a 7 $ $ % % a a - - g w & w R 5 2 5 7 5 a = b a a s r a 0 0 s % 5 5 a - g g & * b k > 5 < 1 2 - i J 1 s r w ; 0 J ",
"g g g w Y = g P 6 % % > f - - - | | t - g ; 5 a - f 5 1 - - a a i z t s 8.' z a % = x } a - s w t 5 % a 1 > - w w a t | s y r._ ",
"w _ w q x a w 9 = , > f } a - 5 [ h s t i w x - a - 1 a 1 a g a x >.w ..g g | - = 7 s [ h h 1 r y 5 Y 1 i 2 2 i g g a >.- ..s g ",
"a   p = g T p O i % 1 7 % $ d d - h g k a = 0 >.0.:.- 5 x a g y # - x g g a 2 ; a f 1 w g a i - * T 2. .a = 2 a i i w % s g G r ",
"d a i R } w w g > > : 5 - 5.=.s R i w i f a t ..Y Y a g I T w r 4.- w g - 5 $ >.} v P ..i j k a s S ..J % x =.D F & 8.t w g r w ",
"9 q h G F g w < - = 5 O.- }  .g / _ ' 9.a i w y J 9 * 9 J C r - t h w = < l 5 h 5.g F F P 8.g a t r g w * w r g 9 w 1 J g * = - ",
"- - a I I w g z a > a 4 6 a w I ( ..^ I x % } } . r ;.} w   i q ;.P @ = a 4 5 f - L J #./ F } % P t.0 0 } 5.a 9 w p b J w q 2 % ",
"I f i i w - g w - [ 6 7 7 $.7 h / ` ' D x g 6.6.g y T 2.w k i q q & g [ f 5 8 O.f s S ! ` J L > :.} v q J } g w z J J g w a 1 % ",
"9.d 5 w a g y w = 6 6 f *.; j a g J ^ +.g w ] m ] = g w q 9 = h a q = i 6 5 ,.a a a g k _ Y a 1 s z  .q w r = 0 i F L g w k - w ",
"C a < - y * a - * % % f a 5 - a O.s f i - u w a 9 q o g 1 & i y t * * % % d z f 5 i 7 7 l i : $ * w   i = r i i w s r * k i P g ",
"C d w @ 0 - t % 5 % > j t.w.z j d f :.8.i - - @ = z 1 < q + w t a s % < % - ....4.a j 6 b 7 $ 2 < - = a ..<.0.7 1 i w j 9 q q 9 ",
"r a 2 - z t 5 = % - 7 i { } z a O.I _ W J $ < i 7 < - < O % @ t t * * < - = y M L 1 f p g = 5 % < i < < ..H F g 2 < g w L g i W ",
"C < < 7 a x w g s i s i 5 a < 1 1 q M r 9 1 % < i i i - $ $ = * $ = q e i w r 9 i p < = w % > 2 i %.z p r J ! i = = r w r w p p "
};
