/* XPM */
static char *_7d7e4576ab94b99a321c4403f2b2117gNMVsniw2hfLsHF5[] = {
/* columns rows colors chars-per-pixel */
"64 64 167 2 ",
"   c #070E05",
".  c #141601",
"X  c #1D1500",
"o  c #161B02",
"O  c #1B1D01",
"+  c #221F03",
"@  c #1E2201",
"#  c #1F2900",
"$  c #1E3300",
"%  c #232500",
"&  c #292600",
"*  c #262A01",
"=  c #2A2D01",
"-  c #232708",
";  c #2B270B",
":  c #242B09",
">  c #2D2F09",
",  c #312E00",
"<  c #362308",
"1  c #352A09",
"2  c #263301",
"3  c #2D3202",
"4  c #2D3B01",
"5  c #2D340A",
"6  c #2F390B",
"7  c #303200",
"8  c #343300",
"9  c #323502",
"0  c #363501",
"q  c #313206",
"w  c #3A3600",
"e  c #3B3502",
"r  c #323803",
"t  c #323A02",
"y  c #353B00",
"u  c #343A03",
"i  c #313804",
"p  c #343C04",
"a  c #353F06",
"s  c #393B02",
"d  c #3C3801",
"f  c #32350A",
"g  c #313809",
"h  c #333B0B",
"j  c #303C0B",
"k  c #3C3809",
"l  c #3A3D0A",
"z  c #3B3C0C",
"x  c #232E10",
"c  c #2C2C13",
"v  c #2D3510",
"b  c #2E3814",
"n  c #303712",
"m  c #333D12",
"M  c #393A10",
"N  c #2C3721",
"B  c #4A2A01",
"V  c #423501",
"C  c #443C03",
"Z  c #4A3D04",
"A  c #44330F",
"S  c #4E3009",
"D  c #413F0D",
"F  c #4F3E0A",
"G  c #543807",
"H  c #54330F",
"J  c #533D0A",
"K  c #453E14",
"L  c #483E11",
"P  c #443E1E",
"I  c #503A12",
"U  c #5B3A17",
"Y  c #59361F",
"T  c #553B1C",
"R  c #513922",
"E  c #234200",
"W  c #284300",
"Q  c #2C4200",
"!  c #364106",
"~  c #3A4305",
"^  c #3D4A07",
"/  c #36420B",
"(  c #3A420B",
")  c #3C4A0A",
"_  c #354114",
"`  c #3A4414",
"'  c #3B4914",
"]  c #35451A",
"[  c #394619",
"{  c #3D4B1B",
"}  c #3E531E",
"|  c #3B4D22",
" . c #3A5125",
".. c #3E552A",
"X. c #434103",
"o. c #4B4303",
"O. c #4B4404",
"+. c #42440C",
"@. c #4F460F",
"#. c #434F08",
"$. c #5D4803",
"%. c #58420D",
"&. c #564908",
"*. c #41520A",
"=. c #424112",
"-. c #484313",
";. c #4C461B",
":. c #47481F",
">. c #414E1E",
",. c #4C4C1D",
"<. c #514211",
"1. c #5A4510",
"2. c #504C17",
"3. c #5F4A11",
"4. c #50441E",
"5. c #58471A",
"6. c #584E19",
"7. c #664C0C",
"8. c #724D0C",
"9. c #6B5307",
"0. c #6C550D",
"q. c #78540E",
"w. c #755C0F",
"e. c #6A4E10",
"r. c #64441F",
"t. c #6C4E19",
"y. c #76481E",
"u. c #635313",
"i. c #6C5217",
"p. c #6C5719",
"a. c #6D591B",
"s. c #795714",
"d. c #586318",
"f. c #7A611F",
"g. c #424823",
"h. c #4E4C27",
"j. c #4D412F",
"k. c #5C4127",
"l. c #58482D",
"z. c #425423",
"x. c #435826",
"c. c #475C2A",
"v. c #5D5425",
"b. c #52532F",
"n. c #494633",
"m. c #4B4B34",
"M. c #545531",
"N. c #585B3A",
"B. c #614523",
"V. c #684A26",
"C. c #63472B",
"Z. c #75442E",
"A. c #675827",
"S. c #64562C",
"D. c #614E31",
"F. c #6A5536",
"G. c #66593D",
"H. c #795F36",
"J. c #755738",
"K. c #7D5A3B",
"L. c #555341",
"P. c #5A5546",
"I. c #6C5F4B",
"U. c #765640",
"Y. c #805815",
"T. c #864027",
"R. c #835E3E",
/* pixels */
"9 7 3 = = = = & ( = & = = = = = = 3 = = s 2 * * = = 3 = * * * d k q = 0 9 2 , 5 3 = 3 = = & % & * = = * 6 6 * 9 = = 3 a = % = = ",
"9 2 3 3 = = 3 & g = * = = = = = = = u = 9 7 9 t = * 2 = * * f P.I.K * 3 = = = 9 = = i 5 & , = * = = > = g 9 6 9 3 3 3 * = & * = ",
"= 3 = = 7 3 * = * 8 = = = 3 = 3 7 3 3 3 = 7 9 = * * = & % @ K L.n.5.% = & = * t = = 3 t = = , = 3 9 3 = = = = 3 3 = 3 = = = * * ",
"= = 7 = = & 3 9 2 0 , = = 3 3 3 2 9 2 = = * = = * * & % = % P G.4.> = = & * = 7 , = 9 3 = = & = 7 = = = 5 , 7 > 3 7 7 8 = = * * ",
", = & > * = = 4 0 & 8 = t 3 t = = = * * * % % * * * * % 3 = % % % = = w 3 = = 7 , = 7 & 9 & 4 = 7 = = = 3 = 7 , B = 9 9 u = = = ",
"* & & & ] 2 5 = 3 & , = 3 9 3 3 = = * * * * & 3 2 & % % * * = O % 3 & * = 3 7 0 , = = = = 3 & 3 3 7 = s = 9 = = = 3 w 0 t 3 = * ",
"= & = 5 g 3 * = & : : = 3 3 = 3 3 = & 2 2 3 = = a 2 & % % % * * * = * 3 2 3 u 7 w s = = N q = 3 0 3 z ~ 7 u & 3 = = 3 9 0 3 2 5 ",
"= = & = g 5 3 = = 8 - W * = = 3 3 3 3 = = ! = # = 5 * % # = = = & C s.O.& = = = = , = C = 7 9 t 9 * b.:.t 3 = 3 = 3 ! 3 3 = f 5 ",
"= q = = g = = = = w > = * = = 4 2 = = * 3 t * % = i % = & = * @ 9.R.B.7.# = * = = = = = 7 0 u s ( M.7 2 t 7 9 = = = 7 , * * * u ",
"= 5 = 3 * = C d = = x : = 9 = 7 a * u = & % * % = = & & & % * % = i.r.Y.4 = = = = = = = u u 9 s u 0 w 7 7 2 3 = = = = u f.w.% 5 ",
"= = = = 9 s Z X.w 8 & : = p 3 = 3 9 3 = * 2 * * * 2 = 2 * 2 2 O O @ $.0.2 4 * = 7 = 7 0 3 ~ 9 9 7 8 0 7 ` ;.= 9 & = * w a.3.@.3 ",
", = & = : 2 7 d & & = = 3 9 / = 3 2 * = * 4 * * = 3 2 * * = 2 3 u * @ * = 2 = = * = = 3 t s 9 3 0 0 7 3 z z = 0 @ &.a.# w @.* 3 ",
"& = = 7 5 * * % & % @ = 2 0 ( 9 = 4 2 & = = * = 3 = 2 9 2 2 2 t * = = = = * = = = = = 7 7 9 y 9 0 0 u 0 s 9 = * & i.p.2 5 = = = ",
"= 7 = & % * = * @ -.v.D u 3 2 = 3 3 2 2 * % = 7 = = = * * 3 * 2 * 2 3 0 = & * = = 3 3 = 3 7 9 u 0 u s s s 3 = 3 = w t 3 u.Z = * ",
"* = = & & % = % @ 2.j.l.s 3 = 3 3 = 2 9 3 * * , = 7 = % * $ * $ 2 2 % % * % * * = = = 3 u s u 7 u 0 s 9 = = = = 0 t 5 % 1 d.3 * ",
"= = = % * = * % % 6.S.3 * = * = = 5 7 t u 3 = 8 8 u u 3 = 2 * * Q * w = & % % % = 3 3 = , 9 7 9 9 u w = 0 = = 3 = ! i i 9 * & 2 ",
"= = = = = = & % & o   % = 2 = 3 5 7 t 3 t 3 7 s ~ 9 9 9 0 3 & 3 3 % % % % % % , & % % = 7 3 2 9 = 3 9 = = = = 3 0 u 0 u 9 s 3 = ",
"9 2 3 = 3 * % # * 7 2 3 = = 9 7 3 9 t t 9 9 0 s u 0 9 3 9 7 9 8 7 * % = * % & = % = q 9 0 3 = = = 3 = = = = = , 7 9 3 3 ! 0 V = ",
"= 9 9 3 3 w h.* % 2 = = * * 2 = u 3 u 9 3 9 3 9 u 0 7 = 3 3 = = u * * % % % s = > = = g 3 7 3 2 = = 3 3 = 7 2 9 3 3 = % > 3 = 3 ",
"3 u 9 3 2 D m.( % = * = > * 3 2 3 9 3 3 7 u = 0 9 7 9 = 0 3 = u 2 = & * % % = O & & g i 3 = 9 0 * * = ~ = ! = ~ ~ = = * & = = 3 ",
"9 q 3 9 = D D * * & 2 = = 2 2 = = = 7 9 9 * 7 0 9 9 3 s w = 7 3 & = * & O % O 3 s % = 5 = = = = = = 9 = ~ ~ 9 u = 3 & = * = 2 9 ",
"2 = 2 3 2 O . * = = 7 t = 0 , h ( ` q 7 3 7 9 9 s 7 = 3 = = 3 7 9 9 % % % % % O % % + % = > 7 , = 7 ! ) 7 0 0 ~ 3 * & = % * i 3 ",
"q 7 3 2 * * % = = * 7 7 7 7 ` ` / * 2 = 5 7 a u 3 u 3 = 3 * = u 3 & * % % @ % * % 3 & 3 = * 5 : = 7 9 s 9 7 9 u = * * 2 * * 9 5 ",
"3 = 3 2 2 = * * = = = 0 h 7 ( 7 h f 7 3 = = s 7 3 = % 3 = & 0 ~ ! 5 * * % = 2 * & * * z = & % & = s s 3 3 u = = 9 % Z 9 * = = = ",
"3 2 = = = = = 2 = s 0 w g l ( z f = 3 3 3 ( i d d s u = = = = : * % 5 * * & = = & * = g.2 = % = 3 ~ = 3 3 = D * = = - = = > 3 3 ",
"9 9 3 = & , i 9 = u u 0 8 +.p ( ~ s 9 9 3 2 ! u 0 s u = 3 = u = * * & u 2 = , 3 = = g % 3 = = * = 3 3 u % A.D.s = = * = = = 7 = ",
"6 9 5 = = > 7 h } 9 7 0 0 u & a 7 3 3 y = 3 0 3 9 = = = a u a * * & = 7 e , = = = * N.= & M.= % = = = s t > L l 2 = = 2 * * = q ",
"= 7 3 9 = = 7 9 ( >.7 7 9 7 9 = 7 9 2 3 5 = % 3 = 3 = = 3 u u 7 2 9 u 8 , , & d = & % = = 5 % * * = = = 3 o . * = = = = = & & = ",
"* = 3 3 3 g b : = u 9 w 3 7 7 3 , = = 3 9 2 * = * = 2 = = 0 ^ u 3 s 7 0 7 , , , 3 & 2 = = & * & 3 2 5 = 3 3 3 7 w 2 = & = = % = ",
"% * 3 3 = 6 m m | | 0 s u 7 = 9 7 = = = 2 = = * & = = 3 = 9 3 > 3 u p 9 3 * 8 8 , = & ! ) 2 * = s = 9 3 5 3 2 = = 7 = = 3 = & = ",
"= = s 0 2 6 5 = % = y 9 y 3 * * = = * = = * * * % * % = 2 3 > 3 5 7 0 3 7 7 > w 7 = = * / *.= s ( u 9 5 = = 5 3 7 = = 2 * = * * ",
"* 2 7 3 = = * * : q 3 3 3 3 9 = 3 * 2 = = & * * % = = * 5 = 3 3 3 7 = = = 3 3 7 3 i ~ 3 & u 0 ! s ! = 3 = 3 t = 3 5 3 = 3 * = = ",
"= = t 9 = = * % : : q = & = 2 3 3 3 3 = * = = = 7 & & & = > 3 3 3 2 3 = 7 = 3 9 7 & = u 7 > u ! s 3 2 = 3 3 > 3 = u % * * & 7 = ",
"= 3 9 3 2 ] & : - % * 2 = = 3 0 u * 3 * = = 2 = * 0 3 % = 2 = = = 7 = 2 3 = & = = 3 7 = > c 5 ! 9 y * = 2 = = t 9 u %.o.u & = & ",
"= 9 7 = 5 6 = - : % v = * = = 3 2 = = = = * = = u 7 = = = = * = = 9 9 9 3 9 9 ( 9 s s 3 7 ; = t ! = = = 7 9 = 6 2 X.V.R t.u 7 & ",
"= 2 h g * = ] 5 2 ] 2 6 m 6 = = = = = = = * Q * = % O = = = = = 7 7 7 9 a [ [ 2 = 3 = ! 3 t 5 3 a ! 9 ! ~ u 3 9 q +.K.7.X.7 7 = ",
"> = b ..m > 5 ] f m 6 m ! = = 7 * W * * 2 4 2 & 3 w = = = = 3 3 3 3 i 3 h 9 3 g t 2 , 3 = = ! ! ! ! ~ i 5 t 5 u t ! s 9 2 > = * ",
"& & * 6 g 6 a 6 3 _ p s ~ > t q = = * = * * = = O . = = 3 9 3 u t 7 ( 0 ( i M 5 9 9 = 9 = 2 5 i ! ! a i 3 6 t 3 u 9 O O = = % & ",
"& & 6 ] m g 9 g g h x.q 9 5 q 9 5 * & * 2 & & 7 2 = * = 3 3 g / 0 9 9 u u / ~ u = 2 * a = 3 9 9 5 i i m ! u 9 ' 3 9 9 5 3 * 9 * ",
"% & g = h 9 5 5 g l 7 h 7 > > 3 > * * & * 2 % = = 9 3 7 5 9 7 ! g u 3 s 9 a t 3 o.7.u = & = = 9 9 9 3 9 z.t a h ` a 3 3 = 3 9 * ",
"& 3 8 : q q 3 l l q = q , p , > = = = % % * % = 3 3 3 5 ` _ 9 ' _ 9 3 3 g 3 3 = C y.d 5 % = = 2 7 3 h 3 l a h 9 h 5 9 5 ~ i = = ",
"& 7 e f > s 2 z +.5 9 [ q ( h u 9 > & % % & * * = = = 3 5 _ = 3 ! q 3 ] = 7 3 = @ d = & = = > 3 ` 6 m 0 9 9 n g { ! t u ! 0 = 3 ",
"& = 0 e k D I <.= q ` u M q z l 5 > = n * * 2 3 * 3 3 h i = ] ] a s y 6 6 2 3 9 & % 2 = * = = > 5 ` h 9 9 i q ` 5 9 p u t 2 3 * ",
"* ` h.t p U H T.8 > k h h 9 5 h t & 5 m f h = 3 = 3 9 4 9 9 = 6 u b s 9 = = 2 = * = 2 & 2 * * = = 3 9 3 9 5 9 a 9 9 i a s 9 3 = ",
"% v.h.+., A U A = q X.& q d 5 , 5 > & h [ f = 3 3 7 9 3 2 = ] m 6 _ t 2 9 * 2 = * * * * * * = = 3 3 K l 9 t ! ! 9 m 0 ! s u 5 & ",
"= * @ X ; k O.& 7 > s e w u w 5 = 9 ; 6 { 5 g 3 g m j 3 = 2 5 3 6 2 * = 3 4 * * * * * & % * ] = = Z.R T 6 / a 9 q f ] m a p 7 9 ",
"2 * + O e K.C.J : , & q f ~ h = = > 3 * g g 3 3 f m = -.=.-.= * 7 3 & : = 3 * * 2 * * : * % 5 ` 2 A R Y 4 s 9 9 3 q 7 7 t 9 9 7 ",
"& 5 > : o J k.C = > u q q i { 5 = 3 2 5 m 6 l 5 7 = 2 ;.U.H.0 = 3 2 = = = = * * 6 & * = 6 ] 7 f 9 % : * 9 7 5 7 | 9 q t , 7 9 = ",
"7 3 > = + + %.l = m > 5 7 ` > & [ = 7 2 h m 2 9 > =.u K.J.5.3 2 = 2 = = = * * 2 = 5 3 3 3 = z 7 * m 7 ) q p u h a z i u u 9 q 3 ",
"9 9 = : > % : = [ > x.0 g u 9 =  .= 3 a 7 7 9 9 t G.F.2 K 3 = 3 > % & * * = = * = 3 3 3 7 3 5  .{ 5 u  .9 g | 3 = 7 X.~ 9 9 5 * ",
"9 3 & 5 > = g , | & ` M ] 9 j 5 j >.3 5 f : 5 3 : =.f & O O = 9 5 2 2 * & * * > * > > 9 3 7 7 5 ] 6 > i g ] g m ] m p l ~ 9 9 3 ",
"3 9 ] n m 5 h = [ z.i m h M u > ' U H : = * 5 = 2 % % ! = 7 2 3 9 3 % % % * * * * = 3 0 3 3 3 z 5 g ` a 5 g 5 7 , 3 s 7 = 3 t 2 ",
"3 = * 6 f f h 5 6 % 5 9 9 M q z & < x 7 * = > 2 = : 2 3 = 2 = 5 2 : & * * 6 % % 2 6 _ 3 9 u h h h h 5 = g g x.7 Q 3 9 3 E & $ 2 ",
"= = & o 5 q g a 5 ` 5 > g 5 > : O @ = 7 = * = * * = * = = 3 = 2 & : % 5 b b ] % ..] 7 3 ! s = = = & & * q 7 = a u 7 = = & = * * ",
"= * % o ; 5 h > / - % O : > = ; = = % - F G * % = * = * = = = @ % * * = = m _ 9 ] 2 3 3 3 ! , = & > 3 9 5 2 9 > 3 = * * M = 3 3 ",
"= * * * - : M > : % > * = h k = = 3 & V H S * = = = = = 2 5 3 & = * > 6 = 9 ] 5 5 5 = = = 7 9 = 0 9 3 3 = = = 2 = 3 = ` n h = 5 ",
"f & = = = h 6 5 = & & > > = = f f V 8.e.o o = 2 = = = * 5 = = = = * 4 5 = ! 3 5 ) = = * = = & p 7 = * * ` g * , { = = { ,.& > = ",
"= f = * = > > & 4 = = = * w = 3 * w H q.Z 3 = _ = = 8 7 = 2 3 7 E = / p = 3 * #.= = * * * = = 9 & % = = = c.= g { g 3 +.* & = * ",
"* & = = & * W & 4 * = 7 = & > 2 % & %.d * 2 o.` h = C = = = = 2 = = 9 / & 3 p a i = & , = = = 2 % t % M m h g x.= 5 n { = * % = ",
"> f 5 5 9 = * = 5 * = = 7 g > 5 @ # . . 5 * +.6 5 , 7 = 3 = = 0 = , & p = 2 4 9 9 3 = 7 7 3 & = 2 { >.g z.` g ` = 6 | h % j 5 % ",
"5 * = 2 9 * > 9 6 & = = & : % % * = = > % : : = % & = q 3 5 9 , = 8 3 p = 3 7 = p * = 7 3 = * = > % & l > g 5 l ! 6 = 5 b _ _ 5 ",
"5 2 5 5 * & = 5 = 6 = 5 2 & * > 5 = f = 6 * - 3 3 3 9 = = * , * = = * a 3 = = 8 3 = = 7 = = = 3 3 = 4 2 } 6 5 ` m 5 _ ] * * m 2 ",
"= = > & = 5 = = = h = = & 6 g g = = 3 3 = % 3 9 3 5 = = = % = & 8 7 3 3 5 3 3 = 2 3 = 9 9 5 = = = t 3 h 9 = 2 5 z.` 3 * & 3 j * ",
"3 3 = = = 3 = = h = = > = * = = = 3 3 = 5 = = = = = = * & * = = = 3 7 3 3 7 3 3 3 = = = = = * & 2 = = = 3 = 3 9 = 5 * a = & = & "
};
