/* XPM */
static char *f6937cbe4dc743abd8b0e7be81c4263aAQyUQlYiKVthIGVj[] = {
/* columns rows colors chars-per-pixel */
"64 64 169 2 ",
"   c #100C01",
".  c #191307",
"X  c #17140B",
"o  c #1C150B",
"O  c #1E1C0D",
"+  c #1F1811",
"@  c #20190F",
"#  c #241D14",
"$  c #24230F",
"%  c #262114",
"&  c #292415",
"*  c #2A2916",
"=  c #27211B",
"-  c #2B251B",
";  c #2E2A1B",
":  c #30271E",
">  c #312B1E",
",  c #2F311B",
"<  c #33321D",
"1  c #353A1E",
"2  c #2E2721",
"3  c #2F2A21",
"4  c #312622",
"5  c #332D23",
"6  c #352E28",
"7  c #392F2D",
"8  c #363224",
"9  c #393325",
"0  c #373921",
"q  c #3B3B25",
"w  c #373329",
"e  c #3B352B",
"r  c #3D3A2C",
"t  c #3E3531",
"y  c #3F3931",
"u  c #413B26",
"i  c #40372D",
"p  c #413C2D",
"a  c #403730",
"s  c #433D33",
"d  c #483F36",
"f  c #463E39",
"g  c #483F3B",
"h  c #3E4124",
"j  c #3F4129",
"k  c #3F4032",
"l  c #424227",
"z  c #43422D",
"x  c #48462E",
"c  c #474B2F",
"v  c #464234",
"b  c #494436",
"n  c #474933",
"m  c #4B4935",
"M  c #474239",
"N  c #4C453C",
"B  c #474838",
"V  c #4E493C",
"C  c #50473D",
"Z  c #534B3F",
"A  c #50493E",
"S  c #514E3D",
"D  c #514A3E",
"F  c #584F3E",
"G  c #4C5133",
"H  c #545337",
"J  c #53513E",
"K  c #59543F",
"L  c #4E4540",
"P  c #4D4640",
"I  c #4F4641",
"U  c #4E4741",
"Y  c #4F4543",
"T  c #4D4541",
"R  c #4C4940",
"E  c #4F4840",
"W  c #4F4842",
"Q  c #4E4943",
"!  c #4E4941",
"~  c #504740",
"^  c #504742",
"/  c #514745",
"(  c #504741",
")  c #514841",
"_  c #504941",
"`  c #524940",
"'  c #514A40",
"]  c #534B40",
"[  c #534A41",
"{  c #524B41",
"}  c #514843",
"|  c #504943",
" . c #524942",
".. c #514A42",
"X. c #534A43",
"o. c #544B42",
"O. c #514D41",
"+. c #524C40",
"@. c #534D41",
"#. c #534C42",
"$. c #554D40",
"%. c #564E41",
"&. c #544D43",
"*. c #554C43",
"=. c #524944",
"-. c #504B45",
";. c #514A44",
":. c #534A45",
">. c #524B45",
",. c #524846",
"<. c #544B44",
"1. c #534C44",
"2. c #504D46",
"3. c #534C46",
"4. c #544D45",
"5. c #554E44",
"6. c #574F45",
"7. c #544D47",
"8. c #564D46",
"9. c #554E46",
"0. c #574F47",
"q. c #534C43",
"w. c #584F46",
"e. c #584E45",
"r. c #564D48",
"t. c #564F49",
"y. c #554D49",
"u. c #594F4A",
"i. c #545142",
"p. c #555145",
"a. c #565044",
"s. c #575046",
"d. c #565144",
"f. c #585045",
"g. c #595146",
"h. c #585246",
"j. c #5A5247",
"k. c #585546",
"l. c #595345",
"z. c #565843",
"x. c #585840",
"c. c #57504A",
"v. c #57524E",
"b. c #56504A",
"n. c #595049",
"m. c #595248",
"M. c #5A5349",
"N. c #59504B",
"B. c #59524A",
"V. c #585449",
"C. c #5A5448",
"Z. c #5D554A",
"A. c #5E564B",
"S. c #5D544F",
"D. c #5B534A",
"F. c #5C584C",
"G. c #5C5A4E",
"H. c #5E5B4A",
"J. c #5E5550",
"K. c #5D5351",
"L. c #5F5852",
"P. c #60574E",
"I. c #625F4E",
"U. c #615A4E",
"Y. c #655D54",
"T. c #666253",
"R. c #696057",
"E. c #6B6557",
"W. c #6E6A5E",
/* pixels */
"A b N a b Q 7.-.-./ ` ` W V v s o.C / ^ ( / ( ( ` C C N B 3 Q M T N y M R M v n r r R V n n V N s i 9 s a M s b b f s N N o.N C ",
"b C Z a ` U U -.U ` U 4.` b V i ^ ` ^ ^ / g N o.N N C b M 3 R R T Q y T M B n j y 8 y k r r a i p N i p ` d b d d s V N C b C b ",
"g.s N d 1.W 7.U -.-.U ` N A N p r.,.s a g ^ y.,.b C ` N M e k N T y.7 2.#.n ; < y r k v n b v ; P.e.e.9 d.d.N V b b f N b %.A.5.",
"` b ` i N U 7.-.f d N -.N V N ; g 6 r.S.,.e.N N d 4.4.` k y # r w y 2 3 8 ; < I.G.V.p.p.d.k.5.- C b C 9 e b ` #.W b b ^ Y.e.C A ",
"b N 5.i s ` y.f f y U U A b 4.# f u./ ^ ,.b 4.4.4.4.W V M - L.B 7.2.v.2.V v j Z M M v N v N ` > Z C D & e.j.A ` n.N N n.C o.o.b ",
"N g.A e V 1.f f U N U N N g.d 5 P.g ^ ^ C o.4.n.` y.W W M 8 v M M M Q N s v 0 V N B B R V b A & C F F # F C N N 5.g.4.C ^ C C ^ ",
"Z V ` a b M T T f U N W ^ N.5 w ^ L ,.C C g.4.` U U Q T y 8 y B T U y Q B i.3 V N N y v b V V ; C p 5.> ; Z A C #.A N 4.Z ^ C o.",
"d.b N w y N 3.N U U N n.4.s b 5 ^ ,.N b C A N N ` N 7.R r 8 r V W N N V N v w ! B M y N R v M 5 > F P.% ; # > e 8 i C d b %.S.C ",
"; 8 5 > s ` ` 4.N U s s t d C : ( C C g F g ` A N -.V V y e 8 ; 5 3 y w w 5 5 C b d N W b ` #.8 > p H.U.P.*.b *.` A o.C N a e 9 ",
"A.k.A.b e 5.-.o.N n.s e L g d : d i s d d d s s b M k v e j v e M N V #.g.w > M.g ` N b N U i.8 9 9 E.f.Z e.P.u.e.o.^ N V ` g.n.",
"N b A N # N A.5.n.M s b C C g : Z.F F F C *.Z 4.w 5 p N n e k.v V b V #.` 5 6 -.N N U N b s 8 p > 0 Y.V C C C ` o.` ` ` U U ` V ",
"N N C b 5 w M.Y.V a C A C C s i Z d C F C *.C e.e ; z v < , < < w 5 5 ; > - 4 b b N M U V b p z # p d.F C b ` b C C N C N N b b ",
"b V b N & s N 5 b b *.b C f.i p F d m C N ` ! V.e 0 < 9 z 9 k.V b ! F D D b 2 -.g N N N M b u 8 & g.A b ` o.C C C N C N N N A V ",
"N V ! B # s b ^ ^ N C %.C Z s < F m C b Q Q b.V.r z < q z z N v B v b b C o.4 N.N d ` ^ N -.n r i F 5.A b N o.g b N C C N N N b ",
"V B V N . b N b b N C F F b d p u u N C 1.3.-.#.0 l x l z.z O.M B B n m C g.5 y.b N b b U 5.K > r Z 5.Z ` C C ^ C C N N N V C V ",
"B V N y % p V C N b C b F Z s < l m C U T Q W F 9 l H < x m V N N 1.b v f.A - 4.L d g N -.A F z q Z V Z C C b C b C C C N N V b ",
"W b W g.> p N n v n n n m S p z z m Z.d.b y.` 4.< < q l m n b p.g.N #.s N #.5 o.N N g N b A C K 9 Z m V V V V N C ^ N g C N A b ",
"T W 1.4.5 e z p q r b p n x q q z V g.N ,.,.1.Z * * l l n Z d.V A 4.M V b 5.5 b b N ^ b ` A d.F & S Z J b V A N ^ b ( g g ^ N C ",
"W 1.` V p s r 9 < & * > > 8 % 8 z K V s N g W V p l q x S Z A d.` d i b N 5.> A N g N ^ e.` f.f.* 0 J N O.! N Q N y.T u./ / y.N ",
"N M s s s M i & Z T.v #.s d.v & z v e Z P.S.4.d.p p n q z m Z #.f d A A b k.; V ` b N 4.^ C C 5.& v n j ! W 1.V.u.u.u.N.r.r.L / ",
"C N N b b C b 5 N o.b g.o.P.i # 1 9 9 9 4 4 5 5 r 9 < < b N F e.#.g.` d.F N 9 s ` 5.^ 4.C o.Z F 8 j , , - =   % 7 5 7 4 7 7 a f ",
"^ b ^ C N b ` 9 d o.A ` ` u.b # 0 z x.5.` K.Y.Y.H.g.x.V $ u i < a 8 > e d > p b s a s s s i i d 8 0 c G n B * W.N ^ -.` / / / / ",
"` N ( C g C ` e s ,.r.` b S.g # U.x b A r.r.r.^ o.F F p u p b d b A N C q v M N d.` 4.^ u.d p p j 1 1 1 h q ; V d g.C P.,.^ ,.C ",
"U U g C ( N C a C e.^ r.o.C C : d z b n.` ` / 4.C Z C u F F F C f.A b C v Z.g.` U 4.r.N P.g s q l h c G n c < m m N P.C C ` b C ",
"U N T g / g / t / <.C e.N C C u < m F A C C g g C V C v C v C C C b b C i F A N M 2.T y v.k a 9 h h z z h B < B V V V V N N N C ",
"U T g y g f Y t ,.,.u.s d K x < m D m C ^ C N ^ ` N A p C b Z b b d s s s 5.` N Q R T 2.2.y i 9 , h h q , q < j b m N N U N g C ",
"T T g g Y g L 7 d N i C b m b x.q V N N ( 8.^ N A b k.s N o.C Z Z C C s b V b W R T T R T e M e h * 8 j j * w V b N N M g L ( N ",
"Y Y g g g g T t d C C b m m z < p Z N A ( ( C C N A Y.s i 9 i a e e e 9 b #.R N f R 2.M 7.f a 8 8 8 j 8 r 8 e v R V T N L Y Y T ",
"Q T M M T M L t d C Z b x z u q s 1.U ^ N N N C ` v V.r M 1.d b N N U B B R V N T Q T T R N - - & 8 s w * w e N N M N b T L N g ",
"T T N R T T N w d C b b n n 1 z w 1.U L C ^ o.b V b B w M N ^ N U N W N t N R Q T M T T R Q v r V p.D.V W V 5 V N g N V L ( U f ",
"y k y y t e y 6 d C d v z < q x v 2.L / ^ N ` 4.#.b v 5 v V M N ` N N N k 2.Q T Q 2.2.2.Q V b w e b n.b V d.3 % y y s M s s s e ",
"3 , 3 8 ; 2 - + s i r s 9 n 0 9 3 T Q 3.o.^ o.` #.V r 8 v M M U N U Q y e y 3 3 3 6 2 e w w 8 5 d b N ` b N 3 y k y r M p i s i ",
"y v 5 v N b C d s v s s v k z N a 8 s 5 i 9 : # y M v 8 s V g ^ V N V M w s C ` C C e.9 F Z v : b e.M.o.C d : u.e.r.V V g.C C S ",
"! b s b ` N ` C A A N C V V V Z r e b s e.P.*.i M B ! y v V A N R N V N 5 e s *.C C e.> F %.m : Z.e.u.8.e.C : r.-.` 1.i.` N F m ",
"F.V s s ` C d *.C A N N V V V A e w N s s d e.i V f R y s N N b V V N M 5 <.*.F e.C j.5 Z b p : d.A.u.,.o.M.6 4.N.Q #.V F C D F ",
"i.b s e d 4.8.C b N N N N V A Z e v b b d C g i 1.` V y v R b ` ! V N N i <.<.` i Z U.i A C z > b.4.,.r.,.M.5 y.N.1.p.i.g.f.C K ",
"N b e b j.5.b M.^ C C N N A A A w e ! b C o.r.d y #.V e d Z C N M N U d : g g s e d b 5 ; - = * V.d.y.v.4.d.2 a r w v v M V S m ",
"i N s Z 5.5.8.b C C b C V ` N p 8 & ; 5 s : - 6 5 t 5 % # # i i t 5 6 e 9 9 5 i e a s e s p.V e D.D.3.v.` A.2 5 8 = w * z r x p ",
"r V p N d.C b V A N C N V V b r 8 V 1.Y.s P.S.P.S.r.,.g.C : 8.C N 1.` -.C C C C V V N V b B V r V.V.7.L.n.A.t U v e q < d.b p u ",
"b N i p d.A V C N N V C b ` #.M r V V #.d e.S.N ` ^ b d.e.: u.C s N N U N d C C W N N W V N ! e 3 w N w a 9 e b y r p q v b m b ",
"N b M v ! V B V V B B ! N V B B 5 ! d.Z V e.A A.A C g.4.5.> e.C f g N C N ` N U N R R R T R N W : i 7 i 9 i i C B v u 5 C b C m ",
"V V j = k.V.V W ! B N N V V M J 8 ! O.Z M A e.A e.A 4.g.,.: F N b N C N N N U ` N N N R V V W V : C [ Y.P.P.*.Z F f.u 0 C C x C ",
"v n r O 5 8 r r J V N V r B V 2.* M n b N o.,.g.g.#.4.d.o.5 C g ` b C b N b B N M N N R W W N N : e.g g g C Z o.A H u u Z C N N ",
"V N v 8 q r 0 e * e , * , 8 8 ; = q k w s g.o.5.5.5.4.A C 9 *.C 8.C 4.^ -.N N V R R N R U N ` C : *.[ e.e.Z C C C S u 0 b b C d ",
"N q m p r B j J n b z Z S J d.z w * 8 < b F %.5.V 4.d.5.C 4 F <.C d C d C d b N R R T N N T U ^ < C C *.b o.Z Z F K u z i N C C ",
"z 9 > 8 k v J V V n V n x.V V S 1 z q p > p i d ` g.4.n.u.: C *.e.C F d C C C C M N R B T N U ^ : N C N d A o.C m m z z p N C N ",
"p > m n z v V m J n V K v C b f.r q q > b d b b V g.4.d.j.: *.8.e.C C C C C d b R B T T V R Q ^ ; V C Z N F 5.C D m m q p b s i ",
"q b v k.z.j V m m m v F b m n n 0 * q ; u x m v v d.` N %.: P.8.e.C F g C Z C d R T N M M N L U > F N C A m V J S K z < r C d d ",
"y v V B F.r R R p.V V V V N V x r n , j 0 < < b n J s 9 5 ` a 8.o.C b 4.N U b b N N U d M N N 1.3 Q R Q 2.B n R R V z 0 y ! b B ",
"k k z n p.y Q Q 5.#.#.d w 5 p v j 0 k r * ; , * 9 9 p 9 i 6 P.i a e e N ` N N 5.-.N M N W M N ! ; 1.Q Q G J G B J V S , z v e 9 ",
"v v n v n B W R b V #.` -.V C b V V y , k.k.v G.#.` d.n.a # t s b b r e i r e a t e w t w w t w $ k O.O.B j j n j n 0 q p u p n ",
"j r 1 x v y ! i.` V V N N N V N B p.0 ; n v V v b V b ` 5 / L U N ^ N s a d d e w a a f s N b d M 3 j q , 0 q j h j h z.u p x p ",
"j j l q 9 Z #.W b b N -.Q L U N V v p & r W b U N U N T t t f M ^ U ,.` -.W 4.-.e d V N N N d N n V $ , z q j q < 1 q < < q 1 9 ",
"m n q z z N #.W N N N U L Y N N V z s 5 ! W N N N U T g N y T T -.b -.` ` N 4.d.5 i U b C U b ` v v 0 H.H.H.z.z.J i.J r x.U.g.U.",
"n n x q j p.#.! N V ` 7.U W N N b V N ; V W U U Q g T Q t t N s d M ` W ` 4.4.4.5 d N N b N N b ! v 8 i.B B M n m z v W V N C d ",
"v m n q s N W 1.#.` A 4.U N N N V b p 5 #.W N T g Q T f M 3 s t N 1.4.N W 4.` -.d M b e.^ N N N R B w V V M i.B v r T b N N N N ",
"n V m z e A ,.( ` V C ` N N N b m v b > Z b N g T N U L b 8 s s -.` 1.U ` 1.` 1.b i 4.A N N b N T B w p.T Q v v k W T T N M T T ",
"V V b v e ,.U ,.b b N C N N m C v p b & N C U U g g U N f i p N U -.N ` W N W W s d ^ N d b f N N V w 1.N T v V p.N N T R N N Q ",
"W N #.M i b.T u.-.C p 9 b m m F m p v % C b f U N M N g a r d ` ` 1.U -.U N N V N ; 5.N b N L N B ! 0 i.Q V M v M V W b N V M W ",
"V ! d i 9 6 ,./ N s b P.e V C p 9 v e * ` o.U b M N N N s w b b N ` W V N N U -.s 5 N N b b N b N i.w B N v M b N v M #.Z V ` b ",
"N V #.b 9 6 g f d d d s 5 8 5 < w , - = B B R T T R W W w t ` M ` ` e.N ` N N N U w N U U N N N n V 0 B b v V N b A.5.N V N m N ",
"N W N N 4 f N.K.u.P.o.M.A.n.i : 3 r r = Q b.M R N N W V 2 f -.W W V ` C V N b N M 5 4.` N N W N N v w M b b V b n.b b C V Z m b ",
"A N #.s 6 ,.T ,.,.C C N -.N x > 8 5 = X y y e y y y y 7 + # # - # & o - ; - - - # f ` N M N U N N N r s p a b U ` A C b Z 5.C A ",
"N V V r s u./ ( C o.o.,.-.A i 8 2.R R R M M B 6 k M T R f 6 f o.-.#.w o.N N ` N y y U U ` U N N B B y r M s f N W ` g b b C Z b "
};
